<svg aria-hidden="true" style="position: absolute; width: 0; height: 0; overflow: hidden;" version="1.1" xmlns="http://www.w3.org/2000/svg" xmlns:xlink="http://www.w3.org/1999/xlink">
 <defs> 
  <symbol id="icon_logo" viewBox="0 0 28 32">
   <path d="M13.421 31.247c-0.258-0.154-0.733-0.424-1.055-0.599s-0.612-0.358-0.645-0.406c-0.032-0.047-0.296-0.205-0.586-0.35s-0.646-0.372-0.791-0.505c-0.263-0.241-0.264-0.253-0.264-3.969v-3.728l0.418-0.384c0.23-0.211 0.678-0.525 0.996-0.697s0.717-0.423 0.888-0.557c0.17-0.134 0.358-0.243 0.417-0.243s0.381-0.175 0.717-0.388c0.335-0.214 0.768-0.469 0.961-0.567 0.397-0.202 1.489-0.854 1.94-1.159 0.164-0.111 0.56-0.337 0.879-0.502 0.894-0.463 1.2-0.771 1.67-1.683 0.768-1.49 2.053-3.845 2.13-3.905 0.119-0.093 1.059-2.045 1.059-2.199 0-0.077-0.145-0.214-0.322-0.306s-0.605-0.357-0.95-0.589c-0.345-0.232-0.695-0.422-0.777-0.422s-0.219-0.084-0.304-0.186c-0.085-0.102-0.5-0.368-0.923-0.59-0.688-0.362-1.036-0.56-2.448-1.396-0.214-0.127-0.742-0.457-1.172-0.733-0.917-0.589-1.161-0.586-2.078 0.022-0.326 0.216-0.8 0.506-1.055 0.645s-0.819 0.475-1.254 0.747c-0.435 0.272-1.226 0.753-1.758 1.067s-1.178 0.709-1.436 0.877c-0.258 0.167-0.588 0.371-0.733 0.453-1.418 0.8-2.002 1.223-2.124 1.538-0.067 0.171-0.179 0.812-0.249 1.424-0.123 1.067-0.167 1.185-1.045 2.813-1.196 2.217-1.412 2.602-1.58 2.813-0.077 0.097-0.21 0.317-0.297 0.49-0.201 0.403-0.803 0.678-0.955 0.437-0.058-0.091-0.105-2.439-0.106-5.219-0.002-5.789-0.088-5.332 1.134-6.008 1.125-0.623 1.714-0.964 2.147-1.242 0.4-0.258 0.911-0.548 2.225-1.266 0.353-0.193 0.84-0.476 1.082-0.628s0.48-0.279 0.53-0.281c0.050-0.002 0.406-0.213 0.791-0.469s0.745-0.466 0.799-0.466c0.054 0 0.271-0.132 0.482-0.293s0.426-0.293 0.478-0.293c0.051 0 0.428-0.211 0.836-0.469s0.789-0.469 0.847-0.469c0.057 0 0.235-0.103 0.395-0.228s0.663-0.415 1.118-0.644c0.805-0.404 0.839-0.41 1.253-0.238 0.37 0.155 1.883 1.011 2.763 1.564 0.161 0.101 0.53 0.311 0.82 0.465s0.607 0.347 0.703 0.429c0.097 0.082 0.44 0.289 0.762 0.462s0.929 0.516 1.348 0.763c0.419 0.247 1.026 0.593 1.348 0.768s0.665 0.386 0.762 0.468c0.097 0.082 0.492 0.314 0.879 0.515 0.741 0.386 0.845 0.444 2.361 1.334 1.266 0.744 1.281 0.825 0.46 2.429-0.887 1.731-1.5 2.862-1.591 2.93-0.043 0.032-0.22 0.349-0.393 0.703s-0.706 1.33-1.184 2.168c-0.478 0.838-1.058 1.867-1.289 2.286-0.973 1.762-1.168 2.009-1.881 2.371-0.258 0.131-0.495 0.273-0.527 0.315-0.053 0.068-0.994 0.635-2.11 1.272-1.813 1.034-3.963 2.315-4.132 2.463s-0.205 0.381-0.205 1.341c0 1.178 0.11 1.615 0.407 1.615 0.153 0 1.027-0.482 1.707-0.941 0.163-0.11 0.532-0.32 0.82-0.466s0.55-0.302 0.582-0.346c0.032-0.044 0.362-0.248 0.733-0.453 1.624-0.898 2.029-1.13 2.139-1.223 0.064-0.055 0.697-0.435 1.407-0.845 1.912-1.105 2.212-1.355 2.633-2.198 0.203-0.405 0.759-1.422 1.237-2.261s0.985-1.761 1.126-2.051c0.353-0.725 0.951-1.623 1.128-1.693 0.081-0.032 0.226-0.028 0.322 0.009 0.257 0.098 0.264 8.557 0.008 9.052-0.103 0.199-0.544 0.544-1.143 0.892-0.536 0.312-1.292 0.752-1.678 0.977s-0.838 0.5-1.002 0.612c-0.164 0.111-0.56 0.344-0.879 0.517s-0.976 0.544-1.459 0.824c-0.484 0.28-1.143 0.65-1.465 0.822s-0.665 0.381-0.762 0.466c-0.097 0.084-0.44 0.291-0.762 0.46s-0.929 0.516-1.348 0.77c-0.419 0.255-0.999 0.6-1.289 0.767s-0.738 0.432-0.996 0.589c-0.591 0.359-1.045 0.361-1.641 0.005zM4.044 25.78c-1.407-0.807-2.201-1.333-2.332-1.544-0.101-0.162-0.009-0.422 0.453-1.289 1.082-2.029 1.446-2.726 1.824-3.489 0.207-0.419 0.415-0.788 0.46-0.82s0.231-0.375 0.411-0.762c0.181-0.387 0.365-0.73 0.41-0.762s0.252-0.401 0.459-0.82c0.403-0.815 0.933-1.811 1.632-3.064 0.238-0.428 0.574-1.037 0.746-1.353s0.435-0.665 0.586-0.775c0.401-0.293 1.592-0.997 2.267-1.339 0.322-0.164 0.612-0.336 0.645-0.384s0.349-0.232 0.703-0.41c0.355-0.178 0.671-0.363 0.703-0.41s0.333-0.225 0.668-0.394c0.699-0.353 0.817-0.332 1.857 0.334 0.354 0.227 0.672 0.412 0.706 0.412s0.357 0.189 0.718 0.42c0.361 0.231 0.78 0.467 0.932 0.525 0.189 0.072 0.276 0.198 0.276 0.399 0 0.231-0.119 0.357-0.557 0.59-0.306 0.163-0.9 0.504-1.319 0.759s-1.052 0.627-1.407 0.827c-0.355 0.2-0.988 0.568-1.407 0.818s-0.999 0.585-1.289 0.743c-0.727 0.398-0.919 0.641-1.728 2.187-0.388 0.741-0.904 1.717-1.147 2.168s-0.653 1.216-0.91 1.7c-0.257 0.484-0.5 0.905-0.539 0.938s-0.191 0.311-0.336 0.619c-0.223 0.473-0.264 0.757-0.264 1.83 0 1.093-0.033 1.312-0.235 1.569-0.213 0.271-1.851 1.261-2.075 1.254-0.051-0.002-0.463-0.215-0.914-0.473z"></path>
  </symbol>
  <symbol id="text_logo" viewBox="0 0 383 32">
   <path d="M137.6 29.691c-4.47-1.020-6.691-3.569-6.691-7.679 0-7.279 5.299-12.549 12.053-11.989 7.007 0.581 9.259 6.14 4.051 9.998-1.31 0.97-2.691 1.257-6.836 1.419-5.757 0.225-6.341 0.739-3.767 3.314 2.204 2.204 6.702 1.633 9.007-1.145 0.672-0.81 0.929-0.777 2.463 0.316 1.625 1.157 1.662 1.276 0.73 2.306-2.2 2.43-7.805 4.192-11.011 3.461zM143.709 17.283c0.81-0.41 1.455-1.244 1.455-1.882 0-0.912-0.462-1.184-2.257-1.332-2.807-0.23-5.26 0.747-6.456 2.571l-0.915 1.396 3.359-0.009c1.847-0.005 4.013-0.34 4.813-0.744zM280.341 29.652c-4.17-0.708-6.893-3.959-6.881-8.213 0.007-2.265 2.233-7.318 3.86-8.763 5.262-4.672 15.334-2.876 15.334 2.733 0 3.827-4.023 6.117-10.745 6.117-2.41 0-4.382 0.119-4.382 0.264 0 1.024 1.523 3.223 2.651 3.827 1.912 1.023 5.366 0.323 7.233-1.465l1.557-1.492 1.583 1.245c1.535 1.207 1.551 1.28 0.536 2.402-2.32 2.564-6.916 3.995-10.745 3.345zM286.564 17.193c3.67-1.534 1.815-3.553-3.029-3.297-1.323 0.070-4.845 2.694-4.845 3.61 0 0.84 5.651 0.616 7.873-0.313zM368 29.708c-4.676-1.112-6.695-3.563-6.681-8.114 0.017-5.937 4.338-11.039 9.791-11.563 5.422-0.521 9.055 1.822 8.943 5.768-0.106 3.73-3.695 5.728-10.288 5.728-4.929 0-5.527 0.654-2.954 3.226 1.984 1.984 4.741 1.89 7.71-0.26l2.331-1.689 3.296 2.628-2.471 1.79c-1.359 0.985-3.307 1.958-4.328 2.163s-2.25 0.455-2.73 0.555c-0.48 0.1-1.658-0.005-2.618-0.233zM375.060 16.753c1.639-1.639 0.588-2.791-2.532-2.777-2.776 0.013-4.181 0.743-5.993 3.115-0.801 1.048-0.666 1.082 3.369 0.854 2.868-0.162 4.506-0.54 5.157-1.192zM37.582 28.354c-3.674-2.101-4.709-3.962-4.709-8.469 0-4.587 1.296-6.906 4.789-8.565 6.954-3.305 14.685-0.41 16.455 6.162 1.166 4.33-1.468 9.657-5.634 11.398-2.999 1.253-8.232 1.001-10.9-0.525zM46.049 25.586c2.614-0.726 3.987-2.707 3.987-5.751 0-4.265-3.889-6.847-8.727-5.794-5.965 1.299-6.261 9.804-0.4 11.499 2.495 0.722 2.698 0.724 5.14 0.046zM112.582 28.883c-5.131-2.373-6.988-8.483-4.188-13.779 2.603-4.921 8.728-6.574 13.992-3.775l2.705 1.438v-9.858h4.073v26.182h-2.036c-1.671 0-2.036-0.216-2.036-1.203 0-1.19-0.020-1.189-1.866 0.126-2.295 1.634-7.984 2.099-10.643 0.87zM120.52 25.608c0.526-0.004 1.77-0.768 2.764-1.696 2.582-2.412 2.521-5.278-0.171-7.97-1.67-1.67-2.39-1.978-4.627-1.978-3.349 0-5.161 0.823-6.389 2.903-1.271 2.152-1.221 3.949 0.175 6.238 1.183 1.941 3.991 3.202 6.129 2.755 0.64-0.134 1.594-0.247 2.12-0.252zM155.505 28.455c-7.161-3.544-6.758-14.088 0.667-17.461 4.003-1.818 8.421-1.282 11.246 1.364l1.309 1.226v-1.556c0-1.39 0.217-1.556 2.036-1.556h2.036v18.618h-2.036c-1.82 0-2.036-0.166-2.036-1.556v-1.556l-1.309 1.226c-2.907 2.723-7.881 3.245-11.913 1.25zM163.785 25.6c0.429 0 1.586-0.678 2.571-1.506 1.494-1.257 1.79-1.925 1.79-4.040 0-3.942-1.793-5.644-6.289-5.969-3.342-0.242-3.661-0.151-5.324 1.512-3.388 3.388-1.794 8.889 2.895 9.989 1.115 0.262 2.376 0.372 2.802 0.245s1.126-0.23 1.555-0.23zM190.753 28.79c-2.105-1.143-2.825-3.612-2.825-9.677 0-5.105-0.013-5.15-1.455-5.15-1.228 0-1.455-0.271-1.455-1.745s0.226-1.745 1.455-1.745c1.274 0 1.455-0.252 1.455-2.036 0-1.939 0.097-2.036 2.036-2.036s2.036 0.097 2.036 2.036c0 2.026 0.014 2.036 2.618 2.036s2.618 0.011 2.618 2.036c0 2.034-0.004 2.036-2.689 2.036h-2.689l0.252 5.28c0.276 5.768 0.726 6.546 3.576 6.176 1.31-0.17 1.759 0.074 2.182 1.185 0.293 0.769 0.532 1.644 0.532 1.943 0 0.853-5.937 0.591-7.647-0.338zM203.288 28.564c-7.554-3.431-7.183-14.037 0.615-17.58 7.914-3.595 16.917 2.121 15.851 10.064-0.933 6.959-9.292 10.773-16.467 7.515zM211.286 25.586c3.569-0.991 5.325-4.907 3.719-8.292-1.139-2.4-2.95-3.33-6.488-3.33-3.231 0-4.607 0.694-5.747 2.897-2.229 4.311 0.602 8.824 5.812 9.265 0.32 0.027 1.537-0.216 2.704-0.54zM265.602 28.364c-1.83-1.579-2.588-4.538-2.606-10.182-0.014-4.108-0.052-4.218-1.468-4.218-1.228 0-1.455-0.271-1.455-1.745s0.226-1.745 1.455-1.745c1.274 0 1.455-0.252 1.455-2.036 0-1.988 0.055-2.036 2.327-2.036s2.327 0.048 2.327 2.036c0 2.030 0.009 2.036 2.655 2.036 2.645 0 2.654 0.007 2.473 1.891-0.171 1.775-0.334 1.902-2.655 2.070l-2.473 0.179v5.132c0 5.774 0.574 6.818 3.431 6.246 1.391-0.278 1.743-0.114 2.027 0.946 0.682 2.544 0.485 2.737-2.808 2.737-2.447 0-3.513-0.298-4.685-1.309zM324.814 28.455c-4.855-2.403-6.354-7.531-3.94-13.473 0.362-0.891 0.042-1.018-2.558-1.018h-2.971v15.127h-4.073v-15.127h-1.455c-0.8 0-1.455-0.302-1.455-0.672 0-0.416-0.388-0.324-1.018 0.242-0.647 0.581-1.608 0.8-2.639 0.6-3.138-0.608-5.404 3.324-6.126 10.63l-0.399 4.036-4.364 0.361v-18.688h2.036c2.007 0 2.036 0.035 2.039 2.473l0.002 2.473 1.136-1.863c1.774-2.909 4.090-3.82 8.51-3.347 3.688 0.395 3.731 0.383 3.731-1.037 0-0.79 0.598-2.326 1.329-3.413 1.545-2.298 5.614-3.637 9.272-3.053 2.232 0.357 2.47 0.756 1.671 2.799-0.371 0.948-0.913 1.112-3.207 0.971-3.017-0.186-4.992 0.971-4.992 2.923 0 0.913 0.477 1.073 3.2 1.073 3.075 0 3.2 0.060 3.2 1.545 0 1.446 0.066 1.485 1.039 0.604 3.795-3.435 10.423-3.56 13.942-0.263l1.309 1.226v-1.556c0-1.39 0.217-1.556 2.036-1.556h2.036v18.618h-2.036c-1.82 0-2.036-0.166-2.036-1.556v-1.556l-1.309 1.226c-2.907 2.723-7.881 3.245-11.913 1.25zM333.192 25.608c0.375-0.004 1.488-0.686 2.473-1.514 1.494-1.257 1.79-1.925 1.79-4.040 0-3.942-1.793-5.644-6.289-5.969-3.342-0.242-3.661-0.151-5.324 1.512-3.244 3.244-1.892 8.66 2.486 9.957 1.020 0.302 2.378 0.44 3.018 0.306s1.471-0.247 1.846-0.252zM348.339 28.493c-5.313-2.892-6.652-10.275-2.683-14.795 2.46-2.801 6.047-4.048 10.488-3.646 4.084 0.37 4.791 0.845 4.282 2.874-0.355 1.413-0.487 1.449-4.288 1.177-5.162-0.369-7.299 0.662-8.301 4.006-0.632 2.109-0.583 2.644 0.414 4.503 1.692 3.157 6.649 4.4 10.821 2.713 0.738-0.298 1.057 0.038 1.364 1.439 0.221 1.005 0.242 1.987 0.047 2.182s-2.511 0.443-5.146 0.551c-3.986 0.164-5.163-0.005-6.999-1.004zM1.164 24.287c0-2.642 0.281-5.718 0.624-6.836s0.596-3.686 0.561-5.706c-0.059-3.426 0.068-3.805 1.876-5.613 2.367-2.367 5.211-3.215 10.794-3.219l4.255-0.003-0.365 3.782-5.033 0.291c-3.85 0.223-5.32 0.551-6.255 1.399-2.009 1.822-1.581 2.63 1.077 2.033 3.833-0.861 7.592 1.206 7.592 4.174 0 2.399-0.546 3.4-2.369 4.343-2.096 1.084-4.225 1.081-6.331-0.007-2.142-1.107-2.355-0.603-2.355 5.56v4.607h-4.073zM12.073 14.982c-0.293-0.881-1.896-1.252-3.218-0.745-0.834 0.32-0.849 0.446-0.111 0.913 1.28 0.809 3.616 0.692 3.329-0.168zM19.2 19.782v-9.309h2.036c1.909 0 2.037 0.118 2.039 1.891l0.003 1.891 1.306-1.545c2.276-2.693 5.489-3.579 8.035-2.216 2.542 1.361 0.513 3.759-3.181 3.761-2.312 0.001-2.433 0.099-4.010 3.25-1.118 2.234-1.735 4.552-1.975 7.418l-0.35 4.169h-3.904zM55.855 19.782v-9.309h4.073l0.005 5.527 1.078-1.745c1.671-2.705 3.272-3.852 5.858-4.199 2.154-0.289 2.558-0.127 4.309 1.73 1.851 1.963 1.963 2.001 2.646 0.907 0.392-0.628 1.607-1.516 2.699-1.972 6.941-2.9 10.729 2.327 9.818 13.548l-0.392 4.822-4.204 0.002 0.181-6.373c0.2-7.041-0.29-8.757-2.499-8.757-2.809 0-6.118 6.989-6.118 12.922 0 2.163-0.042 2.205-2.199 2.205h-2.199l0.018-6.666c0.014-5.459-0.158-6.843-0.951-7.639-2.737-2.748-6.364 2.027-7.539 9.924l-0.652 4.381h-3.931zM101.236 18.651c0-9.918-0.061-10.482-1.212-11.288-1.736-1.216-1.307-3.525 0.697-3.758 1.118-0.13 1.929 0.307 3.055 1.645l1.532 1.821v22.020h-4.073zM234.473 19.162c0-9.932-0.382-12.18-2.068-12.18-0.645 0-0.768-0.404-0.486-1.6 0.543-2.306 0.88-2.482 3.012-1.577 3.125 1.326 3.615 3.369 3.615 15.086v10.201h-4.073zM240.873 19.782v-9.309h4.073v6.051l1.58-2.437c2.613-4.029 7.23-5.38 10.256-3 2.663 2.095 3.994 9.313 2.918 15.823-0.341 2.061-0.479 2.182-2.505 2.182h-2.144l0.469-3.636c0.666-5.16 0.074-9.042-1.64-10.756-1.395-1.395-1.416-1.397-3.236-0.334-2.394 1.398-4.312 5.269-5.205 10.508l-0.719 4.218h-3.846z"></path>
  </symbol>
  <symbol id="title_logo" viewBox="0 0 160 32">
   <path d="M34.862 31.012c-1.903-0.322-4.204-1.555-5.687-3.049-6.788-6.835-2.002-18.579 7.598-18.646 3.106-0.022 5.659 1.030 7.782 3.207 1.805 1.851 2.862 4.077 3.16 6.656l0.124 1.071-6.515-0.119c-6.33-0.115-11.018-0.593-11.632-1.185-0.14-0.135 2.707-0.224 7.145-0.224 4.057 0 7.377-0.083 7.376-0.184-0.003-0.449-1.249-2.191-2.417-3.379-2.208-2.246-5.77-3.618-8.375-3.225-1.577 0.238-3.198 1.355-4.026 2.773-0.624 1.069-0.693 1.41-0.693 3.424 0 2.113 0.053 2.341 0.954 4.129 2.705 5.365 9.195 7.926 13.183 5.201 0.835-0.57 0.854-0.572 1.274-0.105 0.407 0.453 0.401 0.501-0.131 1.071-0.91 0.975-3.68 2.3-5.396 2.58-1.761 0.288-2.056 0.288-3.724 0.006zM82.443 31.013c-5.85-0.788-10.746-5.076-12.486-10.936-0.598-2.013-0.598-6.104 0-8.117 1.021-3.437 3.416-6.781 6.183-8.63 0.768-0.513 2.335-1.267 3.483-1.675 1.836-0.652 2.411-0.742 4.774-0.743 2.946-0.001 4.592 0.372 6.949 1.573 1.877 0.956 3.921 2.643 3.921 3.234 0 0.627-0.999 1.621-2.091 2.080l-0.865 0.364-1.27-1.125c-3.564-3.156-9.131-4.378-13.070-2.869-4.384 1.68-6.739 6.65-5.636 11.897 1.069 5.090 5.537 10.048 10.546 11.704 4.192 1.386 8.444 0.669 11.029-1.86l0.895-0.875 0.987 0.994-1.398 1.255c-3.215 2.885-7.737 4.296-11.952 3.728zM119.084 31.115c-2.619-0.668-3.874-1.536-4.766-3.296-0.8-1.579-0.582-3.912 0.515-5.504 1.003-1.456 2.752-2.582 6.921-4.453 5.38-2.415 6.103-2.905 6.19-4.191 0.094-1.38-0.628-2.464-1.897-2.847-0.849-0.256-1.207-0.235-2.393 0.139-1.162 0.367-1.692 0.747-3.175 2.28-1.976 2.042-2.273 2.115-3.698 0.908-1.013-0.858-0.947-1.383 0.304-2.415 4.678-3.86 12.474-3.166 14.399 1.281 0.196 0.453 0.314 3.378 0.372 9.211l0.085 8.547h-1.105c-1.58 0-2.302-0.405-2.591-1.453-0.134-0.486-0.244-3.619-0.245-6.962l-0.001-6.079-1.527 0.942c-0.84 0.518-2.504 1.469-3.698 2.113-3.672 1.981-4.822 3.336-4.843 5.707-0.014 1.516 0.408 2.28 1.785 3.235 1.221 0.847 3.365 0.656 5.901-0.525 1.041-0.485 1.893-0.79 1.893-0.678 0 0.397-2.907 2.906-3.963 3.421-1.062 0.517-3.523 0.858-4.465 0.618zM153.527 31.002c-1.364-0.341-2.735-1.364-3.43-2.557-0.863-1.483-1.080-3.656-1.085-10.89l-0.005-6.457-3.969-0.005c-3.932-0.005-3.964-0.010-3.373-0.467 0.959-0.742 2.226-1.003 4.867-1.003h2.475v-4.181h3.908l0.004 11.13c0.003 8.402 0.078 11.28 0.309 11.745 0.702 1.414 2.583 1.722 4.889 0.801 1.027-0.411 1.020-0.413 1.26 0.373 0.149 0.487 0.029 0.622-0.924 1.047-1.317 0.587-3.586 0.801-4.926 0.466zM0.489 16.018v-14.758h5.207c6.136 0 7.416 0.192 10.182 1.529 6.161 2.977 9.417 10.61 7.43 17.418-1.51 5.172-5.673 9.13-10.727 10.199-1.561 0.33-6.469 0.53-6.193 0.252 0.064-0.065 1.412-0.447 2.994-0.849 3.7-0.941 4.799-1.495 6.636-3.344 2.586-2.604 3.827-5.946 3.835-10.323 0.010-5.654-2.534-10.453-6.616-12.478-1.573-0.78-1.725-0.806-5.23-0.888l-3.609-0.084v28.085h-3.908zM56.832 30.591c-0.26-0.426-8.466-20.544-8.466-20.756 0-0.132 0.815-0.201 1.888-0.161l1.888 0.072 3.847 10.33c2.116 5.682 3.849 10.413 3.852 10.515s-0.647 0.184-1.446 0.184c-0.798 0-1.502-0.083-1.564-0.184zM98.198 20.199v-10.576h1.118c0.91 0 1.251 0.134 1.832 0.719l0.714 0.719v19.715h-3.664zM137.201 30.612c-0.090-0.090-0.163-4.518-0.163-9.838v-9.674h-3.176v-1.476h3.113l0.17-1.966c0.213-2.458 0.445-3.279 1.262-4.466 1.465-2.129 5.313-2.975 7.972-1.754 1.043 0.479 1.137 0.588 0.943 1.1-0.237 0.627-0.242 0.627-2.388 0.053-1.434-0.384-1.554-0.381-2.441 0.056-0.513 0.253-1.070 0.737-1.237 1.075-0.231 0.467-0.305 3.798-0.307 13.835l-0.004 13.22h-1.791c-0.985 0-1.865-0.074-1.954-0.164zM60.336 28.384c0-1.881 1.192-5.614 3.871-12.123 2.643-6.421 2.692-6.516 3.436-6.592 0.415-0.042 0.754 0.025 0.754 0.149 0 0.231-7.796 19.275-7.967 19.462-0.052 0.056-0.094-0.347-0.094-0.895zM109.119 13.681c-1.671-1.913-3.533-2.331-5.627-1.263-0.627 0.32-1.141 0.494-1.141 0.388s0.362-0.672 0.805-1.258c2.129-2.815 5.984-3.096 8.64-0.632 1.631 1.514 1.409 2.6-0.713 3.493-0.495 0.208-0.93 0.368-0.968 0.355s-0.486-0.501-0.996-1.084zM153.405 10.906c0-0.436 1.596-1.095 2.95-1.219l1.447-0.132v1.544h-2.198c-1.209 0-2.198-0.087-2.198-0.193z"></path>
  </symbol>
  <symbol id="burger" viewBox="0 0 32 32">
   <path d="M5.334 23.027v-1.333h21.333v1.333h-21.333zM5.334 16.667v-1.333h21.333v1.333h-21.333zM5.334 10.307v-1.333h21.333v1.333h-21.333z"></path>
  </symbol>
  <symbol id="icon_prog" viewBox="0 0 27 32">
   <path d="M17.426 31.685c-0.357-0.166-0.432-0.304-0.553-1.029-0.099-0.587-0.089-0.564-0.265-0.621-0.088-0.029-0.27-0.107-0.404-0.174-0.317-0.158-0.25-0.177-0.89 0.249-0.879 0.586-1.096 0.565-1.83-0.176l-0.405-0.408h-5.572c-3.846 0-5.65-0.014-5.824-0.047-0.746-0.138-1.352-0.684-1.532-1.381-0.1-0.387-0.1-26.155 0-26.542 0.182-0.705 0.693-1.232 1.362-1.405 0.462-0.119 15.163-0.098 15.523 0.023 0.404 0.136 0.478 0.204 3.746 3.482 3.331 3.342 3.209 3.202 3.325 3.811 0.027 0.141 0.043 2.211 0.043 5.608v5.384l0.112 0.103c1.033 0.951 1.098 1.272 0.444 2.197l-0.341 0.483 0.122 0.248c0.067 0.136 0.146 0.325 0.175 0.419 0.074 0.238 0.058 0.23 0.623 0.301 1.172 0.147 1.255 0.274 1.254 1.918-0.001 1.572-0.065 1.665-1.258 1.813-0.497 0.062-0.556 0.089-0.621 0.286-0.029 0.090-0.108 0.283-0.174 0.43l-0.12 0.267 0.386 0.567c0.631 0.927 0.628 0.94-0.49 2.071-1.16 1.175-1.238 1.192-2.245 0.495l-0.476-0.329-0.467 0.183c-0.359 0.141-0.471 0.204-0.486 0.272-0.010 0.049-0.050 0.291-0.090 0.537-0.157 0.99-0.288 1.066-1.831 1.066-0.987-0-1.032-0.004-1.241-0.101zM19.263 30.411c0.012-0.053 0.050-0.284 0.083-0.514 0.105-0.716 0.243-0.887 0.849-1.051 0.184-0.050 0.526-0.178 0.762-0.286 0.625-0.287 0.755-0.271 1.393 0.168 0.58 0.398 0.48 0.402 0.943-0.039 0.466-0.443 0.463-0.37 0.041-0.985-0.405-0.591-0.424-0.72-0.176-1.196 0.074-0.142 0.21-0.48 0.302-0.751 0.261-0.768 0.348-0.845 1.065-0.949 0.227-0.033 0.475-0.071 0.552-0.084l0.14-0.024-0.024-1.208-0.533-0.078c-0.846-0.124-1.019-0.255-1.175-0.893-0.039-0.158-0.165-0.485-0.28-0.726-0.295-0.618-0.285-0.675 0.245-1.417 0.336-0.47 0.346-0.397-0.122-0.867-0.472-0.474-0.354-0.468-0.97-0.046-0.676 0.463-0.816 0.482-1.392 0.191-0.211-0.107-0.537-0.236-0.724-0.287-0.711-0.194-0.804-0.313-0.919-1.185-0.063-0.478-0.061-0.476-0.677-0.476-0.499 0-0.492-0.006-0.555 0.457-0.116 0.849-0.266 1.045-0.919 1.203-0.117 0.028-0.41 0.146-0.651 0.262-0.655 0.315-0.766 0.3-1.531-0.218-0.525-0.356-0.426-0.369-0.927 0.123l-0.405 0.398 0.337 0.459c0.516 0.702 0.528 0.781 0.217 1.375-0.115 0.22-0.252 0.543-0.304 0.719-0.215 0.728-0.385 0.844-1.407 0.959-0.357 0.040-0.345 0.015-0.332 0.686l0.012 0.593 0.467 0.055c0.907 0.107 1.071 0.223 1.275 0.906 0.066 0.222 0.206 0.565 0.309 0.761 0.286 0.542 0.268 0.65-0.232 1.358-0.372 0.528-0.382 0.431 0.089 0.9l0.395 0.393 0.548-0.362c0.672-0.444 0.807-0.465 1.316-0.208 0.168 0.084 0.507 0.22 0.755 0.301 0.761 0.249 0.841 0.343 0.964 1.124 0.039 0.246 0.078 0.472 0.088 0.501 0.036 0.112 1.081 0.071 1.107-0.043zM17.852 27.245c-2.435-0.629-3.216-3.695-1.404-5.508 1.363-1.363 3.741-1.156 4.86 0.422 1.796 2.533-0.464 5.859-3.456 5.086zM19.507 25.905c1.532-0.733 1.515-2.87-0.029-3.613-1.631-0.784-3.332 1.014-2.545 2.689 0.441 0.939 1.642 1.37 2.574 0.924zM12.328 28.043c0.031-0.088 0.2-0.369 0.374-0.624l0.317-0.464-0.184-0.448c-0.209-0.508-0.186-0.491-0.739-0.562-1.15-0.148-1.228-0.275-1.208-1.959 0.019-1.606 0.057-1.652 1.528-1.82l0.235-0.027 0.143-0.349c0.078-0.192 0.163-0.398 0.187-0.457 0.039-0.096 0.013-0.151-0.243-0.512-0.708-0.999-0.684-1.119 0.454-2.248 1.078-1.069 1.185-1.089 2.188-0.415l0.486 0.327 0.419-0.162c0.519-0.201 0.501-0.178 0.589-0.756 0.168-1.095 0.259-1.15 1.886-1.131l1.116 0.013 0.185 0.13c0.259 0.182 0.359 0.39 0.44 0.915 0.101 0.657 0.088 0.633 0.408 0.745 0.154 0.053 0.341 0.129 0.417 0.168l0.138 0.071 0.522-0.344c0.287-0.189 0.603-0.365 0.703-0.391l0.181-0.047v-9.547l-2.464-0c-2.998-0-3.167-0.024-3.696-0.511-0.618-0.57-0.624-0.605-0.624-3.695v-2.578h-7.084c-7.997 0-7.29-0.031-7.514 0.329l-0.1 0.161-0.011 12.799c-0.012 13.888-0.024 13.105 0.212 13.321 0.261 0.238-0.089 0.224 5.518 0.226l5.165 0.002zM4.177 16.074c-0.419-0.278-0.422-0.858-0.005-1.143l0.153-0.105h4.739c4.704 0 4.74 0.001 4.888 0.088 0.436 0.256 0.461 0.871 0.048 1.152l-0.153 0.104h-9.525zM4.177 12.24c-0.323-0.187-0.413-0.6-0.201-0.921 0.224-0.339-0.384-0.314 7.501-0.301l7.019 0.012 0.139 0.099c0.392 0.28 0.375 0.905-0.032 1.122-0.143 0.077-0.402 0.079-7.211 0.079l-7.062-0.001zM4.242 8.45c-0.512-0.209-0.47-1.091 0.060-1.237 0.341-0.095 9.458-0.057 9.648 0.040 0.436 0.223 0.479 0.832 0.078 1.118l-0.139 0.099-4.779 0.008c-2.628 0.005-4.819-0.008-4.867-0.028zM22.149 6.831c-0.032-0.020-1.122-1.1-2.421-2.399l-2.363-2.361v4.23l0.098 0.188c0.201 0.387 0.154 0.38 2.61 0.379 1.23-0 2.11-0.016 2.076-0.038z"></path>
  </symbol>
  <symbol id="icon_mail" viewBox="0 0 45 32">
   <path d="M3.245 31.772c-0.276-0.050-0.525-0.113-0.551-0.14-0.062-0.062 0.525-0.641 11.82-11.651 0.967-0.943 1.785-1.714 1.818-1.714s0.773 0.704 1.644 1.565c0.871 0.861 1.753 1.678 1.961 1.817 1.078 0.72 2.335 0.893 3.553 0.488 0.878-0.292 1.321-0.633 3.046-2.347l1.559-1.549 0.362 0.348c0.199 0.191 1.312 1.267 2.473 2.391s2.904 2.809 3.874 3.744c0.97 0.935 2.188 2.114 2.708 2.619s1.717 1.666 2.66 2.579c0.943 0.913 1.699 1.677 1.68 1.696s-0.182 0.077-0.361 0.127c-0.491 0.138-37.489 0.165-38.245 0.027zM42.488 28.74c-1.831-1.809-2.904-2.851-7.717-7.491-2.304-2.221-4.353-4.207-4.554-4.412l-0.365-0.373 3.42-3.403c1.881-1.872 5.035-4.995 7.010-6.942 3.050-3.006 3.602-3.524 3.663-3.439 0.106 0.145 0.328 1.007 0.398 1.547 0.082 0.63 0.081 23.485-0 24.12-0.063 0.489-0.334 1.432-0.461 1.603-0.061 0.082-0.278-0.106-1.395-1.209zM0.641 29.903c-0.037-0.045-0.156-0.345-0.264-0.668-0.167-0.498-0.206-0.736-0.257-1.572-0.036-0.588-0.051-5.524-0.038-12.23 0.021-10.173 0.033-11.286 0.126-11.68 0.12-0.504 0.37-1.178 0.429-1.155 0.022 0.009 2.814 2.766 6.205 6.128s6.527 6.464 6.969 6.894c0.442 0.43 0.797 0.798 0.787 0.817-0.017 0.034-2.76 2.71-7.042 6.868-1.194 1.16-3.216 3.137-4.493 4.394s-2.329 2.285-2.339 2.285c-0.010 0-0.048-0.037-0.085-0.081zM21.858 19.85c-0.389-0.127-0.649-0.339-1.736-1.414-1.149-1.136-12.094-11.995-15.902-15.775-1.59-1.579-1.965-1.983-1.89-2.032 0.052-0.034 0.321-0.137 0.598-0.227 0.459-0.15 0.64-0.17 2.024-0.221 0.836-0.031 9.227-0.048 18.646-0.038 18.864 0.020 17.349-0.012 18.262 0.392l0.363 0.161-1.834 1.81c-1.009 0.996-4.039 4.005-6.734 6.687-10.037 9.989-10.435 10.38-10.719 10.523-0.301 0.151-0.829 0.218-1.079 0.136z"></path>
  </symbol>
  <symbol id="icon_mail_clear" viewBox="0 0 44 32">
   <path d="M3.541 31.842c-1.385-0.128-2.664-1.083-3.229-2.412-0.336-0.789-0.314 0.185-0.299-13.572l0.014-12.527 0.147-0.42c0.224-0.638 0.52-1.098 1.029-1.6 0.52-0.513 0.864-0.732 1.511-0.963l0.46-0.164 18.439-0.015c20.234-0.016 18.729-0.038 19.527 0.286 1.164 0.471 2.119 1.642 2.344 2.873 0.040 0.218 0.057 4.027 0.056 12.695-0.001 13.752 0.026 12.741-0.359 13.538-0.517 1.071-1.404 1.823-2.58 2.186l-0.392 0.121-18.125 0.006c-9.969 0.003-18.313-0.011-18.544-0.032zM38.033 28.651c0-0.024-0.112-0.146-0.249-0.27-0.323-0.293-3.312-3.057-4.368-4.040-0.903-0.84-1.327-1.231-3.33-3.069-0.75-0.688-1.797-1.654-2.326-2.147s-0.978-0.901-0.998-0.909c-0.019-0.007-0.531 0.438-1.136 0.99-1.444 1.316-1.693 1.52-2.090 1.714-0.685 0.334-0.944 0.395-1.686 0.4-0.78 0.005-1.138-0.070-1.74-0.364-0.521-0.255-0.741-0.43-2.038-1.627-0.624-0.576-1.164-1.064-1.2-1.084s-0.122 0.015-0.192 0.079c-0.070 0.064-0.73 0.672-1.465 1.351s-1.645 1.517-2.019 1.862c-0.375 0.344-1.345 1.24-2.154 1.99-2.47 2.288-4.804 4.442-5.172 4.774-0.192 0.173-0.351 0.332-0.354 0.354s7.313 0.039 16.257 0.039c8.944 0 16.262-0.020 16.262-0.044zM4.283 25.495c0.485-0.447 1.249-1.155 1.698-1.574s1.417-1.315 2.151-1.993c0.734-0.678 1.512-1.399 1.729-1.602s0.536-0.5 0.709-0.659c0.634-0.582 1.751-1.609 2.336-2.15 0.331-0.305 0.832-0.763 1.113-1.018s0.511-0.469 0.511-0.475c0-0.007-0.254-0.243-0.564-0.525s-0.871-0.8-1.246-1.15c-0.375-0.35-1.166-1.082-1.757-1.626s-1.347-1.24-1.679-1.547c-0.332-0.307-1.037-0.959-1.567-1.447s-1.194-1.101-1.475-1.361c-2.445-2.259-2.906-2.678-2.97-2.692-0.062-0.014-0.073 1.534-0.073 10.313 0 5.681 0.015 10.345 0.034 10.363 0.055 0.055 0.128-0.005 1.050-0.855zM40.341 16.022c0-6.568-0.018-10.359-0.050-10.348-0.059 0.021-0.942 0.821-2.963 2.688-4.102 3.788-4.813 4.446-5.249 4.857-0.26 0.245-1.048 0.976-1.751 1.623l-1.279 1.177 0.206 0.187c0.41 0.372 2.834 2.61 3.271 3.020 0.246 0.231 1.025 0.951 1.73 1.6s1.472 1.357 1.704 1.574c0.231 0.216 1.033 0.96 1.781 1.652s1.621 1.501 1.94 1.797c0.319 0.296 0.598 0.538 0.62 0.538s0.040-4.664 0.040-10.365zM22.11 18.076c0.18-0.075 0.317-0.195 1.575-1.369 0.375-0.35 1.048-0.976 1.495-1.39s1.487-1.38 2.31-2.147c0.823-0.766 1.908-1.771 2.41-2.233s1.692-1.559 2.642-2.439c0.951-0.88 1.908-1.763 2.127-1.963s0.646-0.592 0.949-0.871c0.303-0.28 0.964-0.89 1.469-1.356s0.926-0.871 0.936-0.899c0.011-0.034-5.644-0.051-16.262-0.049l-16.28 0.002 0.367 0.346c0.202 0.19 0.934 0.867 1.626 1.504s1.412 1.302 1.6 1.479c0.188 0.177 0.624 0.581 0.97 0.898 2.558 2.346 4.517 4.151 5.873 5.416 2.204 2.054 2.544 2.372 3.916 3.662 0.739 0.695 1.398 1.292 1.466 1.328 0.306 0.164 0.553 0.188 0.809 0.081z"></path>
  </symbol>
  <symbol id="icon_serv" viewBox="0 0 49 32">
   <path d="M18.753 31.628c-0.589-0.186-1.027-0.547-1.32-1.087l-0.124-0.228 0.005-1.17 0.904-2.409c1.111-2.962 1.398-3.742 2.669-7.26 0.554-1.533 1.24-3.422 1.525-4.198 0.629-1.712 1.441-3.953 2.12-5.849 1.383-3.864 2.81-7.777 2.942-8.072l0.149-0.33 0.635-0.594 0.727-0.242 0.918 0.054 0.332 0.167c0.389 0.196 0.764 0.588 0.946 0.988l0.129 0.285 0.003 1.067-0.201 0.568c-0.111 0.312-0.391 1.079-0.624 1.703s-0.936 2.545-1.563 4.267c-1.607 4.412-1.879 5.162-2.84 7.845-0.265 0.739-0.401 1.111-1.379 3.751-0.308 0.833-0.9 2.459-1.315 3.613s-0.937 2.594-1.16 3.2c-0.223 0.606-0.552 1.499-0.729 1.986l-0.323 0.885-0.216 0.283c-0.535 0.702-1.438 1.019-2.208 0.776zM12.009 29.891c-1.827-0.421-3.163-1.616-3.684-3.293l-0.085-0.275-0.092-4.060-0.146-0.366c-0.328-0.821-0.96-1.408-1.795-1.666l-0.44-0.136-1.947-0.002-0.447-0.105c-0.246-0.058-0.706-0.23-1.021-0.383l-0.574-0.277-0.425-0.425c-0.678-0.679-1.078-1.538-1.175-2.524l-0.044-0.447 0.201-1.138 0.525-1.064 0.965-0.97 0.482-0.248c0.265-0.136 0.652-0.3 0.86-0.364l0.378-0.116 2.615-0.098 0.856-0.389 0.338-0.358c0.392-0.414 0.588-0.769 0.732-1.323l0.103-0.395 0.002-3.24 0.201-0.963 0.624-1.264 0.464-0.475c0.695-0.712 1.434-1.136 2.368-1.356l0.436-0.103 3.007-0.002 0.194 0.115c0.107 0.063 0.228 0.188 0.269 0.279l0.075 0.164v2.873l-0.356 0.423-2.706 0-0.236 0.12c-0.13 0.066-0.3 0.208-0.379 0.314l-0.143 0.194-0.081 3.947-0.184 0.605c-0.865 2.85-3.239 4.593-6.514 4.782l-0.86 0.050v0.206l0.895 0.047c1.489 0.078 2.412 0.346 3.579 1.037l0.609 0.361 0.527 0.516c0.927 0.908 1.568 1.986 1.856 3.125l0.138 0.544 0 3.522 0.12 0.239c0.066 0.132 0.226 0.31 0.354 0.396l0.234 0.156h2.743l0.402 0.402v2.968l-0.401 0.449-1.64 0.011c-0.902 0.006-1.702-0.003-1.778-0.021zM33.177 29.848c-0.091-0.047-0.223-0.193-0.295-0.326l-0.13-0.241 0.039-2.799 0.449-0.401 2.716-0.001 0.22-0.134c0.121-0.074 0.268-0.227 0.327-0.34l0.107-0.206 0.002-1.259c0.001-0.693 0.030-1.569 0.064-1.948l0.062-0.688 0.185-0.585c0.907-2.876 3.221-4.567 6.48-4.737l0.88-0.046v-0.206l-0.791-0.050c-1.621-0.102-2.578-0.373-3.731-1.059l-0.565-0.336-1.247-1.239-0.321-0.516c-0.363-0.585-0.717-1.42-0.86-2.030l-0.097-0.413-0.078-3.824-0.127-0.161c-0.070-0.089-0.233-0.212-0.363-0.273l-0.236-0.112h-2.638l-0.139-0.074c-0.076-0.041-0.183-0.179-0.236-0.307l-0.097-0.233v-2.682l0.075-0.164c0.041-0.090 0.162-0.215 0.269-0.279l0.194-0.115h3.088l0.531 0.136c1.603 0.41 3.018 1.781 3.419 3.311l0.080 0.304 0.089 4.060 0.191 0.408c0.367 0.787 0.999 1.353 1.765 1.58l0.374 0.111h1.839l0.53 0.109c0.292 0.060 0.763 0.221 1.047 0.357l0.516 0.248 1.049 1.049 0.244 0.512c0.343 0.719 0.415 1.033 0.415 1.819l0 0.688-0.183 0.535c-0.465 1.358-1.53 2.326-2.968 2.697l-0.41 0.106h-0.94c-1.487 0-2.017 0.16-2.664 0.804l-0.364 0.362-0.442 0.932-0.084 3.991-0.119 0.41c-0.443 1.532-1.716 2.748-3.351 3.201l-0.504 0.14-3.1-0.002zM23.886 26.743l-0.079-0.096 0.144-0.364c0.079-0.2 0.468-1.264 0.865-2.365s0.802-2.212 0.899-2.471l0.177-0.471 0.319-0.133c0.8-0.334 1.389-0.749 1.986-1.4l0.42-0.458 0.275-0.53c0.151-0.291 0.347-0.762 0.436-1.046l0.161-0.516-0.007-1.996-0.219-0.577c-0.12-0.317-0.281-0.683-0.358-0.813s-0.139-0.267-0.139-0.305c0-0.21 1.907-5.428 2.031-5.558l0.091-0.095 0.376 0.094 1.907 1.885-0.001 0.537-0.475 0.901c-0.261 0.496-0.541 1.029-0.622 1.186l-0.147 0.285 0.18 0.449c0.099 0.247 0.235 0.499 0.304 0.561l0.124 0.112 1.093 0.275c0.601 0.151 1.195 0.308 1.321 0.348l0.228 0.073 0.129 0.34v2.751l-0.1 0.193c-0.127 0.245-0.241 0.289-1.616 0.622-1.264 0.306-1.232 0.288-1.478 0.879-0.233 0.561-0.262 0.445 0.412 1.693 0.325 0.601 0.607 1.194 0.627 1.316l0.036 0.223-0.108 0.208c-0.129 0.249-1.715 1.778-1.996 1.924l-0.197 0.102-0.147-0.038c-0.081-0.021-0.595-0.317-1.143-0.659l-0.996-0.621-0.14 0.044c-0.352 0.111-1.145 0.529-1.199 0.632-0.050 0.095-0.303 1.405-0.467 2.42-0.021 0.132-0.103 0.311-0.18 0.396l-0.141 0.155h-2.505zM16.475 23.456c-1.294-1.275-1.27-1.075-0.327-2.784 0.659-1.194 0.641-1.108 0.361-1.704-0.261-0.558-0.088-0.469-1.623-0.833l-1.295-0.307-0.241-0.294v-3.005l0.314-0.365 1.133-0.27c0.623-0.149 1.215-0.303 1.316-0.343l0.183-0.073 0.179-0.412c0.098-0.226 0.179-0.492 0.179-0.589v-0.177l-0.552-1.012c-0.304-0.557-0.581-1.114-0.617-1.237l-0.065-0.225 0.182-0.431 1.874-1.817 0.488-0.092 1.052 0.627c1.207 0.719 1.137 0.704 1.772 0.384l0.483-0.243 0.059-0.155c0.083-0.219 0.486-2.238 0.486-2.436v-0.163l0.338-0.338h2.389l0.236 0.173-0.352 0.963c-0.194 0.53-0.425 1.164-0.513 1.41s-0.398 1.1-0.688 1.897l-0.526 1.45-0.318 0.118c-0.937 0.347-1.889 1.116-2.47 1.996l-0.325 0.492-0.411 1.17-0.060 1.732 0.142 0.56c0.078 0.308 0.252 0.784 0.386 1.057 0.303 0.614 0.345 0.338-0.348 2.246-0.326 0.897-0.761 2.11-0.967 2.696-0.389 1.105-0.503 1.309-0.73 1.309h-0.135z"></path>
   <path d="M18.753 31.633c-0.446-0.148-0.683-0.295-0.948-0.587-0.424-0.469-0.497-0.663-0.494-1.316 0.002-0.58 0.011-0.607 0.906-2.994 1.111-2.962 1.398-3.742 2.669-7.26 0.554-1.533 1.24-3.422 1.525-4.198s0.782-2.139 1.104-3.028c2.738-7.551 3.67-10.128 3.765-10.412 0.184-0.552 0.364-0.844 0.703-1.142 1.040-0.915 2.802-0.459 3.232 0.837 0.082 0.247 0.105 0.489 0.081 0.868-0.029 0.459-0.137 0.804-0.866 2.761-0.738 1.982-2.159 5.871-3.005 8.224-0.163 0.454-0.503 1.399-0.756 2.099s-0.61 1.691-0.793 2.202c-0.184 0.511-0.587 1.61-0.896 2.443-0.715 1.927-1.944 5.309-2.239 6.159-0.552 1.593-1.548 4.219-1.681 4.434-0.459 0.742-1.535 1.167-2.308 0.91zM12.009 29.891c-1.609-0.371-2.709-1.219-3.403-2.623-0.344-0.695-0.363-0.837-0.412-2.975-0.042-1.845-0.060-2.063-0.192-2.396-0.2-0.5-0.629-1.050-1.025-1.312-0.567-0.375-1.076-0.49-2.183-0.491-1.154-0.001-1.631-0.097-2.442-0.489-0.636-0.307-1.284-0.889-1.609-1.445-0.256-0.437-0.512-1.246-0.565-1.782-0.149-1.511 0.761-3.164 2.129-3.868 0.8-0.412 1.104-0.475 2.546-0.529 1.235-0.046 1.331-0.060 1.736-0.243 0.476-0.216 1.012-0.729 1.251-1.195 0.3-0.588 0.351-0.981 0.353-2.695 0.001-1.913 0.064-2.303 0.514-3.215 0.484-0.98 1.33-1.775 2.352-2.209 0.705-0.3 1.139-0.357 2.731-0.358 1.631-0.001 1.803 0.033 1.966 0.392 0.046 0.101 0.075 0.717 0.075 1.611v1.447l-0.402 0.402-1.33 0c-1.464 0-1.657 0.043-1.944 0.435-0.134 0.182-0.145 0.315-0.183 2.168-0.039 1.881-0.049 2.002-0.224 2.578-0.485 1.597-1.511 2.909-2.95 3.774-1.070 0.643-2.052 0.921-3.564 1.008-0.697 0.040-0.86 0.069-0.86 0.153s0.166 0.112 0.895 0.15c1.057 0.056 1.66 0.171 2.415 0.462 1.217 0.469 2.376 1.349 3.118 2.367 0.399 0.547 0.872 1.555 1.038 2.21 0.12 0.475 0.138 0.77 0.138 2.305 0 1.969 0.025 2.096 0.475 2.396 0.224 0.149 0.294 0.156 1.605 0.156h1.371l0.402 0.402v2.968l-0.401 0.449-1.64 0.011c-0.902 0.006-1.702-0.003-1.778-0.021zM33.177 29.848c-0.091-0.047-0.223-0.193-0.295-0.326-0.118-0.218-0.128-0.376-0.111-1.64l0.020-1.399 0.449-0.401h1.365c1.307 0 1.375-0.007 1.598-0.157 0.378-0.255 0.405-0.369 0.406-1.736 0.001-1.592 0.097-2.578 0.319-3.287 0.374-1.195 1.132-2.334 2.075-3.118 0.546-0.454 1.115-0.799 1.241-0.752 0.049 0.018 0.073 0.006 0.052-0.027-0.044-0.071 0.39-0.285 0.984-0.485 0.503-0.169 1.147-0.266 2.211-0.333 0.647-0.040 0.794-0.069 0.812-0.16 0.018-0.095-0.102-0.118-0.857-0.161-0.483-0.027-1.096-0.092-1.363-0.143-0.543-0.104-1.465-0.427-1.901-0.667-0.158-0.087-0.358-0.197-0.445-0.245-0.104-0.057-0.15-0.135-0.132-0.226 0.015-0.076-0.003-0.12-0.040-0.097s-0.049 0.070-0.027 0.105c0.097 0.157-0.109 0.031-0.558-0.341-0.768-0.636-1.7-1.875-1.57-2.085 0.027-0.043 0.017-0.058-0.023-0.033-0.077 0.047-0.347-0.514-0.541-1.123-0.099-0.31-0.128-0.747-0.161-2.412-0.045-2.247-0.048-2.265-0.509-2.546-0.198-0.121-0.353-0.134-1.54-0.134-0.726-0-1.401-0.031-1.5-0.069-0.325-0.124-0.38-0.402-0.38-1.932v-1.385l0.482-0.482 1.738 0.028c1.586 0.026 1.777 0.042 2.185 0.184 1.354 0.472 2.333 1.35 2.9 2.599 0.325 0.715 0.398 1.288 0.401 3.125 0.002 1.273 0.026 1.702 0.112 1.996 0.253 0.865 0.92 1.556 1.801 1.865 0.318 0.112 0.558 0.137 1.254 0.132 0.874-0.006 1.395 0.055 2.051 0.24 0.227 0.064 0.346 0.131 0.317 0.178-0.028 0.045-0.008 0.061 0.049 0.041 0.207-0.073 0.976 0.44 1.406 0.937 0.33 0.382 0.697 1.005 0.592 1.005-0.034 0-0.081-0.054-0.103-0.12s-0.102-0.225-0.176-0.353c-0.15-0.257-0.128-0.279-0.236 0.233-0.029 0.138-0.048 0.016-0.074-0.481-0.007-0.134-0.052-0.214-0.129-0.229-0.065-0.012-0.118-0.067-0.118-0.121s-0.023-0.101-0.052-0.103c-0.13-0.013-0.313-0.057-0.418-0.1-0.106-0.044-0.107-0.050-0.001-0.091 0.098-0.038 0.091-0.061-0.052-0.168-0.091-0.068-0.165-0.091-0.165-0.052s0.031 0.072 0.069 0.072c0.038 0 0.069 0.034 0.069 0.076s-0.050 0.057-0.115 0.032c-0.111-0.043-0.227 0.060-0.227 0.201 0 0.038 0.027 0.026 0.060-0.026 0.050-0.079 0.087-0.075 0.223 0.024l0.162 0.119-0.323-0.095 0.147 0.147c0.081 0.081 0.177 0.129 0.213 0.106s0.066-0.008 0.066 0.032c0 0.040 0.076 0.073 0.168 0.073s0.189 0.034 0.215 0.076c0.033 0.053-0.017 0.062-0.16 0.031l-0.207-0.045-0.011 0.657c-0.009 0.541 0.007 0.657 0.091 0.657 0.056 0 0.183 0.074 0.281 0.165 0.206 0.191 0.413 0.191 0.413 0 0-0.072 0.047-0.131 0.104-0.131 0.068 0 0.099 0.059 0.089 0.172-0.020 0.253-0.056 0.403-0.11 0.457-0.026 0.026-0.048 0.136-0.048 0.243s-0.031 0.195-0.069 0.195c-0.076 0-0.091 0.205-0.027 0.372 0.023 0.060 0.067 0.093 0.098 0.074 0.087-0.054 0.223 0.435 0.175 0.626-0.024 0.094-0.118 0.205-0.21 0.247-0.13 0.059-0.153 0.102-0.104 0.195 0.035 0.065 0.042 0.14 0.017 0.166s0.014 0.024 0.088-0.004c0.125-0.047 0.128-0.041 0.032 0.082-0.057 0.073-0.142 0.158-0.189 0.188s-0.084 0.108-0.081 0.172c0.004 0.097 0.014 0.094 0.057-0.017 0.052-0.132 0.053-0.132 0.088 0.003 0.029 0.109 0.002 0.137-0.129 0.137-0.162 0-0.164-0.010-0.145-0.554 0.014-0.381 0.047-0.557 0.106-0.563 0.047-0.005 0.116-0.012 0.153-0.017 0.069-0.009 0.042-0.14-0.085-0.404-0.058-0.121-0.132-0.155-0.338-0.155-0.262 0-0.264 0.002-0.264 0.275 0 0.229 0.023 0.275 0.138 0.275 0.126 0 0.138 0.046 0.138 0.551s-0.011 0.551-0.138 0.551c-0.076 0-0.138 0.034-0.138 0.075s0.062 0.091 0.138 0.111c0.076 0.020 0.138 0.065 0.138 0.101s-0.029 0.047-0.064 0.025c-0.035-0.022-0.084-0.008-0.108 0.031s-0.075 0.052-0.113 0.029c-0.038-0.023-0.086 0.025-0.108 0.107-0.031 0.119-0.076 0.142-0.219 0.113-0.099-0.020-0.141-0.020-0.094 0.001s0.086 0.069 0.086 0.108c0 0.039-0.039 0.056-0.086 0.038-0.058-0.022-0.092 0.056-0.105 0.242-0.016 0.229-0.001 0.268 0.092 0.232 0.061-0.023 0.124-0.043 0.14-0.043s0.029-0.040 0.029-0.090c0-0.049 0.085-0.12 0.189-0.157 0.129-0.046 0.162-0.084 0.104-0.12-0.052-0.033-0.155 0.016-0.265 0.127-0.099 0.099-0.2 0.16-0.224 0.136s0.045-0.121 0.155-0.216c0.139-0.12 0.247-0.159 0.359-0.131 0.132 0.033 0.153 0.019 0.115-0.081-0.041-0.108-0.033-0.111 0.077-0.022 0.108 0.088 0.119 0.087 0.099-0.010-0.013-0.060 0.062-0.189 0.166-0.285s0.191-0.139 0.194-0.093c0.002 0.046 0.032 0.013 0.067-0.072s0.045-0.209 0.024-0.275c-0.029-0.092-0.023-0.098 0.028-0.027 0.042 0.059 0.083 0.068 0.11 0.023 0.024-0.039 0.007-0.082-0.038-0.097-0.048-0.016-0.059-0.064-0.026-0.116 0.045-0.073 0.067-0.072 0.12 0.004 0.044 0.063 0.049 0.037 0.016-0.078-0.044-0.154-0.037-0.162 0.066-0.076 0.099 0.082 0.109 0.081 0.074-0.011-0.022-0.058-0.008-0.126 0.033-0.151s0.074-0.107 0.074-0.183c0-0.076 0.029-0.12 0.064-0.098 0.039 0.024 0.042-0.040 0.005-0.166-0.032-0.113-0.034-0.354-0.004-0.535l0.055-0.329 0.032 0.688 0.088-0.378c0.079-0.34 0.089-0.354 0.096-0.135 0.012 0.373-0.179 1.015-0.449 1.511-0.24 0.441-0.946 1.239-1.096 1.239-0.043 0-0.132 0.060-0.199 0.134-0.175 0.194-0.921 0.537-1.426 0.656-0.276 0.065-0.789 0.103-1.401 0.104-0.987 0.001-1.617 0.104-1.943 0.317-0.086 0.056-0.192 0.081-0.234 0.055-0.047-0.029-0.058-0.017-0.028 0.032 0.065 0.106-0.044 0.102-0.166-0.007-0.081-0.072-0.083-0.068-0.016 0.021 0.066 0.088 0.036 0.149-0.165 0.339-0.333 0.314-0.576 0.714-0.726 1.194-0.106 0.34-0.125 0.646-0.125 2 0 2.167-0.132 2.831-0.752 3.774-0.355 0.54-0.867 1.044-0.985 0.971-0.041-0.026-0.053-0.013-0.028 0.029 0.060 0.096-0.343 0.384-0.448 0.319-0.049-0.030-0.061-0.019-0.032 0.028 0.065 0.105-0.644 0.456-1.276 0.631-0.437 0.121-0.706 0.139-2.053 0.138-1.093-0.001-1.598-0.026-1.714-0.086zM23.886 26.743c-0.061-0.073-0.046-0.18 0.064-0.46 0.079-0.2 0.468-1.264 0.865-2.365 1.16-3.214 1.027-2.921 1.395-3.074 1.614-0.673 2.76-1.997 3.175-3.671 0.129-0.519 0.148-0.747 0.121-1.445-0.034-0.896-0.156-1.364-0.551-2.116l-0.206-0.392 0.327-0.95c0.18-0.522 0.573-1.615 0.874-2.429s0.594-1.611 0.65-1.771c0.090-0.255 0.12-0.283 0.235-0.221 0.090 0.048 0.131 0.048 0.131-0.001 0-0.039 0.030-0.071 0.067-0.071s0.047 0.054 0.023 0.12c-0.024 0.066-0.020 0.099 0.009 0.073s0.127 0.033 0.217 0.13c0.091 0.098 0.165 0.15 0.166 0.116s0.031-0.015 0.068 0.042c0.044 0.069 0.067 0.075 0.068 0.017 0.002-0.131-0.028-0.191-0.085-0.172-0.028 0.009-0.052-0.012-0.052-0.047s-0.059-0.083-0.13-0.106c-0.072-0.023-0.146-0.102-0.166-0.177-0.036-0.139-0.255-0.193-0.255-0.062 0 0.040-0.034 0.052-0.075 0.027-0.129-0.080 0.050-0.189 0.235-0.143 0.175 0.044 1.905 1.657 1.905 1.776 0 0.037 0.046 0.113 0.103 0.17 0.233 0.233 0.175 0.39-0.865 2.339l-0.299 0.56 0.125 0.277c0.069 0.152 0.101 0.315 0.072 0.362-0.048 0.078-0.115 0.589-0.070 0.535 0.011-0.013 0.058-0.097 0.105-0.187 0.068-0.131 0.068-0.153-0.002-0.109-0.063 0.039-0.074 0.020-0.041-0.066 0.025-0.066 0.046-0.141 0.046-0.166s0.062 0.055 0.138 0.179c0.17 0.278 0.251 0.311 1.617 0.646 1.507 0.37 1.411 0.231 1.411 2.027 0 1.517-0.039 1.718-0.356 1.862-0.088 0.040-0.655 0.189-1.261 0.331s-1.164 0.298-1.242 0.346c-0.197 0.122-0.543 1.001-0.477 1.21 0.028 0.089 0.235 0.495 0.459 0.903 0.226 0.411 0.386 0.777 0.358 0.821-0.030 0.048-0.020 0.062 0.026 0.034 0.087-0.054 0.359 0.511 0.359 0.746 0 0.084-0.088 0.274-0.195 0.421-0.221 0.304-1.647 1.661-1.885 1.794-0.292 0.162-0.244 0.184-1.99-0.9l-0.525-0.326-0.601 0.261c-0.331 0.144-0.641 0.324-0.69 0.401-0.073 0.115-0.289 1.19-0.492 2.445-0.021 0.132-0.103 0.311-0.18 0.396-0.136 0.15-0.182 0.155-1.394 0.155-0.985 0-1.27-0.020-1.332-0.096zM16.475 23.456c-0.544-0.536-1.007-1.032-1.030-1.102-0.064-0.203 0.089-0.57 0.703-1.682 0.316-0.572 0.574-1.088 0.574-1.145 0-0.126-0.402-1-0.484-1.050-0.032-0.020-0.64-0.174-1.353-0.342-1.002-0.237-1.322-0.34-1.415-0.454-0.107-0.13-0.12-0.32-0.12-1.649 0-1.923-0.105-1.768 1.447-2.138 0.623-0.149 1.215-0.303 1.316-0.343 0.201-0.080 0.54-0.754 0.54-1.074 0-0.097-0.249-0.633-0.552-1.189-0.651-1.194-0.716-1.379-0.591-1.678 0.050-0.119 0.512-0.624 1.028-1.124 0.734-0.711 0.989-0.918 1.18-0.954 0.22-0.041 0.348 0.017 1.349 0.611l1.106 0.657 0.492-0.236c0.27-0.13 0.534-0.278 0.585-0.329s0.202-0.648 0.334-1.325c0.132-0.677 0.262-1.308 0.289-1.402 0.084-0.296 0.296-0.343 1.53-0.345 1.336-0.001 1.438 0.032 1.278 0.414-0.055 0.132-0.399 1.076-0.765 2.098s-0.787 2.2-0.937 2.618l-0.273 0.76-0.321 0.119c-1.347 0.499-2.521 1.702-3.003 3.075-0.175 0.498-0.21 0.714-0.235 1.451-0.035 1.017 0.095 1.665 0.498 2.483 0.135 0.273 0.245 0.523 0.245 0.556s-0.266 0.793-0.592 1.69c-0.326 0.897-0.761 2.11-0.967 2.696-0.389 1.105-0.503 1.309-0.73 1.309-0.081 0-0.531-0.39-1.124-0.975z"></path>
  </symbol>
  <symbol id="icon_back" viewBox="0 0 42 32">
   <path d="M15.85 31.762c-0.345-0.13-0.575-0.32-1.422-1.174-5.014-5.049-14.094-14.244-14.202-14.382l-0.136-0.172 3.899-3.928c2.144-2.16 5.601-5.644 7.681-7.741 4.166-4.2 4.026-4.085 5.018-4.128 1.428-0.061 2.34 0.823 2.34 2.267 0 1.021 0.161 0.827-5.196 6.238-2.611 2.637-4.759 4.827-4.773 4.867-0.016 0.047 3.409 0.073 9.608 0.073h9.633l5.009-5.014c5.604-5.609 5.375-5.416 6.392-5.416 1.423 0 2.347 0.885 2.35 2.252 0.002 0.941 0.090 0.836-4.998 5.978l-4.554 4.603 1.53 1.546c0.841 0.85 2.83 2.858 4.419 4.462s3.006 3.067 3.149 3.252c1.178 1.526 0.106 3.615-1.858 3.624-1 0.004-1.082-0.056-3.626-2.631-1.209-1.224-3.458-3.496-4.997-5.049l-2.798-2.822h-9.636c-5.3 0-9.636 0.018-9.636 0.041s1.424 1.478 3.164 3.234c6.121 6.177 6.431 6.5 6.621 6.907 0.905 1.938-0.955 3.88-2.981 3.113z"></path>
  </symbol>
  <symbol id="icon_proj" viewBox="0 0 40 32">
   <path d="M2.56 31.757c-1.090-0.264-2-1.121-2.343-2.209-0.121-0.383-0.158-26.205-0.038-26.897 0.192-1.112 1.010-2.052 2.1-2.413l0.408-0.135 10.203 0.028 0.381 0.141c0.811 0.301 1.442 0.873 1.862 1.688 0.217 0.422 0.432 0.647 0.779 0.817l0.3 0.147 14.006 0.053 0.101 0.124c0.256 0.316 0.32 0.236-2.443 2.994-2.721 2.716-2.762 2.75-3.39 2.858-0.2 0.034-2.696 0.055-6.918 0.058-7.453 0.005-6.841-0.032-7.26 0.434-0.178 0.198-0.263 0.356-0.347 0.64-0.105 0.356-0.4 1.336-1.366 4.542-0.227 0.754-0.749 2.474-1.159 3.822s-0.85 2.807-0.978 3.242c-0.128 0.435-0.352 1.182-0.499 1.661-0.512 1.667-0.95 3.218-0.95 3.365 0 0.479 0.402 1.027 0.87 1.187 0.306 0.104 24.966 0.137 25.338 0.034 0.671-0.186 0.719-0.288 1.524-3.241 0.38-1.392 0.868-3.183 1.086-3.98s0.713-2.588 1.1-3.98c0.388-1.392 0.757-2.744 0.821-3.005 0.235-0.962 0.891-1.836 1.832-2.442 1.018-0.655 1.941-0.2 2.177 1.071 0.111 0.597 0.050 0.884-0.955 4.534-0.527 1.914-1.215 4.416-1.53 5.562s-0.765 2.782-1.002 3.638c-0.237 0.855-0.547 1.99-0.69 2.521-0.529 1.965-1.289 2.848-2.709 3.146-0.549 0.115-29.832 0.11-30.309-0.005zM4.014 16.567c0.16-0.405 2.066-6.613 2.771-9.028 0.288-0.986 0.855-1.717 1.612-2.076 0.589-0.28 0.753-0.296 2.888-0.296 1.089 0 1.948-0.021 1.948-0.046 0-0.113-1.012-1.005-1.301-1.147l-0.307-0.151-6.806-0.029-0.234 0.124c-0.304 0.16-0.552 0.49-0.625 0.828-0.059 0.274-0.088 11.967-0.030 11.967 0.015 0 0.054-0.065 0.085-0.145zM19.841 24.119c-1.104-0.24-1.211-0.325-4.292-3.401-3.273-3.267-3.295-3.299-3.357-4.639-0.114-2.491 2.344-4.103 4.661-3.056 0.532 0.24 0.667 0.356 2.474 2.12l0.85 0.83h0.503l1.531-1.516c4.614-4.566 7.94-7.862 9.84-9.75 2.542-2.526 2.653-2.615 3.541-2.832 2.997-0.735 5.253 2.717 3.436 5.256-0.372 0.519-16.032 16.118-16.482 16.418-0.841 0.559-1.813 0.763-2.706 0.569z"></path>
  </symbol>
  </defs>
 </svg>
