<svg aria-hidden="true" style="position: absolute; width: 0; height: 0; overflow: hidden;" version="1.1" xmlns="http://www.w3.org/2000/svg" xmlns:xlink="http://www.w3.org/1999/xlink">
 <defs> 
  <symbol id="icon_logo" viewBox="0 0 28 32">
   <path d="M13.421 31.247c-0.258-0.154-0.733-0.424-1.055-0.599s-0.612-0.358-0.645-0.406c-0.032-0.047-0.296-0.205-0.586-0.35s-0.646-0.372-0.791-0.505c-0.263-0.241-0.264-0.253-0.264-3.969v-3.728l0.418-0.384c0.23-0.211 0.678-0.525 0.996-0.697s0.717-0.423 0.888-0.557c0.17-0.134 0.358-0.243 0.417-0.243s0.381-0.175 0.717-0.388c0.335-0.214 0.768-0.469 0.961-0.567 0.397-0.202 1.489-0.854 1.94-1.159 0.164-0.111 0.56-0.337 0.879-0.502 0.894-0.463 1.2-0.771 1.67-1.683 0.768-1.49 2.053-3.845 2.13-3.905 0.119-0.093 1.059-2.045 1.059-2.199 0-0.077-0.145-0.214-0.322-0.306s-0.605-0.357-0.95-0.589c-0.345-0.232-0.695-0.422-0.777-0.422s-0.219-0.084-0.304-0.186c-0.085-0.102-0.5-0.368-0.923-0.59-0.688-0.362-1.036-0.56-2.448-1.396-0.214-0.127-0.742-0.457-1.172-0.733-0.917-0.589-1.161-0.586-2.078 0.022-0.326 0.216-0.8 0.506-1.055 0.645s-0.819 0.475-1.254 0.747c-0.435 0.272-1.226 0.753-1.758 1.067s-1.178 0.709-1.436 0.877c-0.258 0.167-0.588 0.371-0.733 0.453-1.418 0.8-2.002 1.223-2.124 1.538-0.067 0.171-0.179 0.812-0.249 1.424-0.123 1.067-0.167 1.185-1.045 2.813-1.196 2.217-1.412 2.602-1.58 2.813-0.077 0.097-0.21 0.317-0.297 0.49-0.201 0.403-0.803 0.678-0.955 0.437-0.058-0.091-0.105-2.439-0.106-5.219-0.002-5.789-0.088-5.332 1.134-6.008 1.125-0.623 1.714-0.964 2.147-1.242 0.4-0.258 0.911-0.548 2.225-1.266 0.353-0.193 0.84-0.476 1.082-0.628s0.48-0.279 0.53-0.281c0.050-0.002 0.406-0.213 0.791-0.469s0.745-0.466 0.799-0.466c0.054 0 0.271-0.132 0.482-0.293s0.426-0.293 0.478-0.293c0.051 0 0.428-0.211 0.836-0.469s0.789-0.469 0.847-0.469c0.057 0 0.235-0.103 0.395-0.228s0.663-0.415 1.118-0.644c0.805-0.404 0.839-0.41 1.253-0.238 0.37 0.155 1.883 1.011 2.763 1.564 0.161 0.101 0.53 0.311 0.82 0.465s0.607 0.347 0.703 0.429c0.097 0.082 0.44 0.289 0.762 0.462s0.929 0.516 1.348 0.763c0.419 0.247 1.026 0.593 1.348 0.768s0.665 0.386 0.762 0.468c0.097 0.082 0.492 0.314 0.879 0.515 0.741 0.386 0.845 0.444 2.361 1.334 1.266 0.744 1.281 0.825 0.46 2.429-0.887 1.731-1.5 2.862-1.591 2.93-0.043 0.032-0.22 0.349-0.393 0.703s-0.706 1.33-1.184 2.168c-0.478 0.838-1.058 1.867-1.289 2.286-0.973 1.762-1.168 2.009-1.881 2.371-0.258 0.131-0.495 0.273-0.527 0.315-0.053 0.068-0.994 0.635-2.11 1.272-1.813 1.034-3.963 2.315-4.132 2.463s-0.205 0.381-0.205 1.341c0 1.178 0.11 1.615 0.407 1.615 0.153 0 1.027-0.482 1.707-0.941 0.163-0.11 0.532-0.32 0.82-0.466s0.55-0.302 0.582-0.346c0.032-0.044 0.362-0.248 0.733-0.453 1.624-0.898 2.029-1.13 2.139-1.223 0.064-0.055 0.697-0.435 1.407-0.845 1.912-1.105 2.212-1.355 2.633-2.198 0.203-0.405 0.759-1.422 1.237-2.261s0.985-1.761 1.126-2.051c0.353-0.725 0.951-1.623 1.128-1.693 0.081-0.032 0.226-0.028 0.322 0.009 0.257 0.098 0.264 8.557 0.008 9.052-0.103 0.199-0.544 0.544-1.143 0.892-0.536 0.312-1.292 0.752-1.678 0.977s-0.838 0.5-1.002 0.612c-0.164 0.111-0.56 0.344-0.879 0.517s-0.976 0.544-1.459 0.824c-0.484 0.28-1.143 0.65-1.465 0.822s-0.665 0.381-0.762 0.466c-0.097 0.084-0.44 0.291-0.762 0.46s-0.929 0.516-1.348 0.77c-0.419 0.255-0.999 0.6-1.289 0.767s-0.738 0.432-0.996 0.589c-0.591 0.359-1.045 0.361-1.641 0.005zM4.044 25.78c-1.407-0.807-2.201-1.333-2.332-1.544-0.101-0.162-0.009-0.422 0.453-1.289 1.082-2.029 1.446-2.726 1.824-3.489 0.207-0.419 0.415-0.788 0.46-0.82s0.231-0.375 0.411-0.762c0.181-0.387 0.365-0.73 0.41-0.762s0.252-0.401 0.459-0.82c0.403-0.815 0.933-1.811 1.632-3.064 0.238-0.428 0.574-1.037 0.746-1.353s0.435-0.665 0.586-0.775c0.401-0.293 1.592-0.997 2.267-1.339 0.322-0.164 0.612-0.336 0.645-0.384s0.349-0.232 0.703-0.41c0.355-0.178 0.671-0.363 0.703-0.41s0.333-0.225 0.668-0.394c0.699-0.353 0.817-0.332 1.857 0.334 0.354 0.227 0.672 0.412 0.706 0.412s0.357 0.189 0.718 0.42c0.361 0.231 0.78 0.467 0.932 0.525 0.189 0.072 0.276 0.198 0.276 0.399 0 0.231-0.119 0.357-0.557 0.59-0.306 0.163-0.9 0.504-1.319 0.759s-1.052 0.627-1.407 0.827c-0.355 0.2-0.988 0.568-1.407 0.818s-0.999 0.585-1.289 0.743c-0.727 0.398-0.919 0.641-1.728 2.187-0.388 0.741-0.904 1.717-1.147 2.168s-0.653 1.216-0.91 1.7c-0.257 0.484-0.5 0.905-0.539 0.938s-0.191 0.311-0.336 0.619c-0.223 0.473-0.264 0.757-0.264 1.83 0 1.093-0.033 1.312-0.235 1.569-0.213 0.271-1.851 1.261-2.075 1.254-0.051-0.002-0.463-0.215-0.914-0.473z"></path>
  </symbol>
  <symbol id="text_logo" viewBox="0 0 383 32">
   <path d="M137.6 29.691c-4.47-1.020-6.691-3.569-6.691-7.679 0-7.279 5.299-12.549 12.053-11.989 7.007 0.581 9.259 6.14 4.051 9.998-1.31 0.97-2.691 1.257-6.836 1.419-5.757 0.225-6.341 0.739-3.767 3.314 2.204 2.204 6.702 1.633 9.007-1.145 0.672-0.81 0.929-0.777 2.463 0.316 1.625 1.157 1.662 1.276 0.73 2.306-2.2 2.43-7.805 4.192-11.011 3.461zM143.709 17.283c0.81-0.41 1.455-1.244 1.455-1.882 0-0.912-0.462-1.184-2.257-1.332-2.807-0.23-5.26 0.747-6.456 2.571l-0.915 1.396 3.359-0.009c1.847-0.005 4.013-0.34 4.813-0.744zM280.341 29.652c-4.17-0.708-6.893-3.959-6.881-8.213 0.007-2.265 2.233-7.318 3.86-8.763 5.262-4.672 15.334-2.876 15.334 2.733 0 3.827-4.023 6.117-10.745 6.117-2.41 0-4.382 0.119-4.382 0.264 0 1.024 1.523 3.223 2.651 3.827 1.912 1.023 5.366 0.323 7.233-1.465l1.557-1.492 1.583 1.245c1.535 1.207 1.551 1.28 0.536 2.402-2.32 2.564-6.916 3.995-10.745 3.345zM286.564 17.193c3.67-1.534 1.815-3.553-3.029-3.297-1.323 0.070-4.845 2.694-4.845 3.61 0 0.84 5.651 0.616 7.873-0.313zM368 29.708c-4.676-1.112-6.695-3.563-6.681-8.114 0.017-5.937 4.338-11.039 9.791-11.563 5.422-0.521 9.055 1.822 8.943 5.768-0.106 3.73-3.695 5.728-10.288 5.728-4.929 0-5.527 0.654-2.954 3.226 1.984 1.984 4.741 1.89 7.71-0.26l2.331-1.689 3.296 2.628-2.471 1.79c-1.359 0.985-3.307 1.958-4.328 2.163s-2.25 0.455-2.73 0.555c-0.48 0.1-1.658-0.005-2.618-0.233zM375.060 16.753c1.639-1.639 0.588-2.791-2.532-2.777-2.776 0.013-4.181 0.743-5.993 3.115-0.801 1.048-0.666 1.082 3.369 0.854 2.868-0.162 4.506-0.54 5.157-1.192zM37.582 28.354c-3.674-2.101-4.709-3.962-4.709-8.469 0-4.587 1.296-6.906 4.789-8.565 6.954-3.305 14.685-0.41 16.455 6.162 1.166 4.33-1.468 9.657-5.634 11.398-2.999 1.253-8.232 1.001-10.9-0.525zM46.049 25.586c2.614-0.726 3.987-2.707 3.987-5.751 0-4.265-3.889-6.847-8.727-5.794-5.965 1.299-6.261 9.804-0.4 11.499 2.495 0.722 2.698 0.724 5.14 0.046zM112.582 28.883c-5.131-2.373-6.988-8.483-4.188-13.779 2.603-4.921 8.728-6.574 13.992-3.775l2.705 1.438v-9.858h4.073v26.182h-2.036c-1.671 0-2.036-0.216-2.036-1.203 0-1.19-0.020-1.189-1.866 0.126-2.295 1.634-7.984 2.099-10.643 0.87zM120.52 25.608c0.526-0.004 1.77-0.768 2.764-1.696 2.582-2.412 2.521-5.278-0.171-7.97-1.67-1.67-2.39-1.978-4.627-1.978-3.349 0-5.161 0.823-6.389 2.903-1.271 2.152-1.221 3.949 0.175 6.238 1.183 1.941 3.991 3.202 6.129 2.755 0.64-0.134 1.594-0.247 2.12-0.252zM155.505 28.455c-7.161-3.544-6.758-14.088 0.667-17.461 4.003-1.818 8.421-1.282 11.246 1.364l1.309 1.226v-1.556c0-1.39 0.217-1.556 2.036-1.556h2.036v18.618h-2.036c-1.82 0-2.036-0.166-2.036-1.556v-1.556l-1.309 1.226c-2.907 2.723-7.881 3.245-11.913 1.25zM163.785 25.6c0.429 0 1.586-0.678 2.571-1.506 1.494-1.257 1.79-1.925 1.79-4.040 0-3.942-1.793-5.644-6.289-5.969-3.342-0.242-3.661-0.151-5.324 1.512-3.388 3.388-1.794 8.889 2.895 9.989 1.115 0.262 2.376 0.372 2.802 0.245s1.126-0.23 1.555-0.23zM190.753 28.79c-2.105-1.143-2.825-3.612-2.825-9.677 0-5.105-0.013-5.15-1.455-5.15-1.228 0-1.455-0.271-1.455-1.745s0.226-1.745 1.455-1.745c1.274 0 1.455-0.252 1.455-2.036 0-1.939 0.097-2.036 2.036-2.036s2.036 0.097 2.036 2.036c0 2.026 0.014 2.036 2.618 2.036s2.618 0.011 2.618 2.036c0 2.034-0.004 2.036-2.689 2.036h-2.689l0.252 5.28c0.276 5.768 0.726 6.546 3.576 6.176 1.31-0.17 1.759 0.074 2.182 1.185 0.293 0.769 0.532 1.644 0.532 1.943 0 0.853-5.937 0.591-7.647-0.338zM203.288 28.564c-7.554-3.431-7.183-14.037 0.615-17.58 7.914-3.595 16.917 2.121 15.851 10.064-0.933 6.959-9.292 10.773-16.467 7.515zM211.286 25.586c3.569-0.991 5.325-4.907 3.719-8.292-1.139-2.4-2.95-3.33-6.488-3.33-3.231 0-4.607 0.694-5.747 2.897-2.229 4.311 0.602 8.824 5.812 9.265 0.32 0.027 1.537-0.216 2.704-0.54zM265.602 28.364c-1.83-1.579-2.588-4.538-2.606-10.182-0.014-4.108-0.052-4.218-1.468-4.218-1.228 0-1.455-0.271-1.455-1.745s0.226-1.745 1.455-1.745c1.274 0 1.455-0.252 1.455-2.036 0-1.988 0.055-2.036 2.327-2.036s2.327 0.048 2.327 2.036c0 2.030 0.009 2.036 2.655 2.036 2.645 0 2.654 0.007 2.473 1.891-0.171 1.775-0.334 1.902-2.655 2.070l-2.473 0.179v5.132c0 5.774 0.574 6.818 3.431 6.246 1.391-0.278 1.743-0.114 2.027 0.946 0.682 2.544 0.485 2.737-2.808 2.737-2.447 0-3.513-0.298-4.685-1.309zM324.814 28.455c-4.855-2.403-6.354-7.531-3.94-13.473 0.362-0.891 0.042-1.018-2.558-1.018h-2.971v15.127h-4.073v-15.127h-1.455c-0.8 0-1.455-0.302-1.455-0.672 0-0.416-0.388-0.324-1.018 0.242-0.647 0.581-1.608 0.8-2.639 0.6-3.138-0.608-5.404 3.324-6.126 10.63l-0.399 4.036-4.364 0.361v-18.688h2.036c2.007 0 2.036 0.035 2.039 2.473l0.002 2.473 1.136-1.863c1.774-2.909 4.090-3.82 8.51-3.347 3.688 0.395 3.731 0.383 3.731-1.037 0-0.79 0.598-2.326 1.329-3.413 1.545-2.298 5.614-3.637 9.272-3.053 2.232 0.357 2.47 0.756 1.671 2.799-0.371 0.948-0.913 1.112-3.207 0.971-3.017-0.186-4.992 0.971-4.992 2.923 0 0.913 0.477 1.073 3.2 1.073 3.075 0 3.2 0.060 3.2 1.545 0 1.446 0.066 1.485 1.039 0.604 3.795-3.435 10.423-3.56 13.942-0.263l1.309 1.226v-1.556c0-1.39 0.217-1.556 2.036-1.556h2.036v18.618h-2.036c-1.82 0-2.036-0.166-2.036-1.556v-1.556l-1.309 1.226c-2.907 2.723-7.881 3.245-11.913 1.25zM333.192 25.608c0.375-0.004 1.488-0.686 2.473-1.514 1.494-1.257 1.79-1.925 1.79-4.040 0-3.942-1.793-5.644-6.289-5.969-3.342-0.242-3.661-0.151-5.324 1.512-3.244 3.244-1.892 8.66 2.486 9.957 1.020 0.302 2.378 0.44 3.018 0.306s1.471-0.247 1.846-0.252zM348.339 28.493c-5.313-2.892-6.652-10.275-2.683-14.795 2.46-2.801 6.047-4.048 10.488-3.646 4.084 0.37 4.791 0.845 4.282 2.874-0.355 1.413-0.487 1.449-4.288 1.177-5.162-0.369-7.299 0.662-8.301 4.006-0.632 2.109-0.583 2.644 0.414 4.503 1.692 3.157 6.649 4.4 10.821 2.713 0.738-0.298 1.057 0.038 1.364 1.439 0.221 1.005 0.242 1.987 0.047 2.182s-2.511 0.443-5.146 0.551c-3.986 0.164-5.163-0.005-6.999-1.004zM1.164 24.287c0-2.642 0.281-5.718 0.624-6.836s0.596-3.686 0.561-5.706c-0.059-3.426 0.068-3.805 1.876-5.613 2.367-2.367 5.211-3.215 10.794-3.219l4.255-0.003-0.365 3.782-5.033 0.291c-3.85 0.223-5.32 0.551-6.255 1.399-2.009 1.822-1.581 2.63 1.077 2.033 3.833-0.861 7.592 1.206 7.592 4.174 0 2.399-0.546 3.4-2.369 4.343-2.096 1.084-4.225 1.081-6.331-0.007-2.142-1.107-2.355-0.603-2.355 5.56v4.607h-4.073zM12.073 14.982c-0.293-0.881-1.896-1.252-3.218-0.745-0.834 0.32-0.849 0.446-0.111 0.913 1.28 0.809 3.616 0.692 3.329-0.168zM19.2 19.782v-9.309h2.036c1.909 0 2.037 0.118 2.039 1.891l0.003 1.891 1.306-1.545c2.276-2.693 5.489-3.579 8.035-2.216 2.542 1.361 0.513 3.759-3.181 3.761-2.312 0.001-2.433 0.099-4.010 3.25-1.118 2.234-1.735 4.552-1.975 7.418l-0.35 4.169h-3.904zM55.855 19.782v-9.309h4.073l0.005 5.527 1.078-1.745c1.671-2.705 3.272-3.852 5.858-4.199 2.154-0.289 2.558-0.127 4.309 1.73 1.851 1.963 1.963 2.001 2.646 0.907 0.392-0.628 1.607-1.516 2.699-1.972 6.941-2.9 10.729 2.327 9.818 13.548l-0.392 4.822-4.204 0.002 0.181-6.373c0.2-7.041-0.29-8.757-2.499-8.757-2.809 0-6.118 6.989-6.118 12.922 0 2.163-0.042 2.205-2.199 2.205h-2.199l0.018-6.666c0.014-5.459-0.158-6.843-0.951-7.639-2.737-2.748-6.364 2.027-7.539 9.924l-0.652 4.381h-3.931zM101.236 18.651c0-9.918-0.061-10.482-1.212-11.288-1.736-1.216-1.307-3.525 0.697-3.758 1.118-0.13 1.929 0.307 3.055 1.645l1.532 1.821v22.020h-4.073zM234.473 19.162c0-9.932-0.382-12.18-2.068-12.18-0.645 0-0.768-0.404-0.486-1.6 0.543-2.306 0.88-2.482 3.012-1.577 3.125 1.326 3.615 3.369 3.615 15.086v10.201h-4.073zM240.873 19.782v-9.309h4.073v6.051l1.58-2.437c2.613-4.029 7.23-5.38 10.256-3 2.663 2.095 3.994 9.313 2.918 15.823-0.341 2.061-0.479 2.182-2.505 2.182h-2.144l0.469-3.636c0.666-5.16 0.074-9.042-1.64-10.756-1.395-1.395-1.416-1.397-3.236-0.334-2.394 1.398-4.312 5.269-5.205 10.508l-0.719 4.218h-3.846z"></path>
  </symbol>
  <symbol id="title_logo" viewBox="0 0 160 32">
   <path d="M34.862 31.012c-1.903-0.322-4.204-1.555-5.687-3.049-6.788-6.835-2.002-18.579 7.598-18.646 3.106-0.022 5.659 1.030 7.782 3.207 1.805 1.851 2.862 4.077 3.16 6.656l0.124 1.071-6.515-0.119c-6.33-0.115-11.018-0.593-11.632-1.185-0.14-0.135 2.707-0.224 7.145-0.224 4.057 0 7.377-0.083 7.376-0.184-0.003-0.449-1.249-2.191-2.417-3.379-2.208-2.246-5.77-3.618-8.375-3.225-1.577 0.238-3.198 1.355-4.026 2.773-0.624 1.069-0.693 1.41-0.693 3.424 0 2.113 0.053 2.341 0.954 4.129 2.705 5.365 9.195 7.926 13.183 5.201 0.835-0.57 0.854-0.572 1.274-0.105 0.407 0.453 0.401 0.501-0.131 1.071-0.91 0.975-3.68 2.3-5.396 2.58-1.761 0.288-2.056 0.288-3.724 0.006zM82.443 31.013c-5.85-0.788-10.746-5.076-12.486-10.936-0.598-2.013-0.598-6.104 0-8.117 1.021-3.437 3.416-6.781 6.183-8.63 0.768-0.513 2.335-1.267 3.483-1.675 1.836-0.652 2.411-0.742 4.774-0.743 2.946-0.001 4.592 0.372 6.949 1.573 1.877 0.956 3.921 2.643 3.921 3.234 0 0.627-0.999 1.621-2.091 2.080l-0.865 0.364-1.27-1.125c-3.564-3.156-9.131-4.378-13.070-2.869-4.384 1.68-6.739 6.65-5.636 11.897 1.069 5.090 5.537 10.048 10.546 11.704 4.192 1.386 8.444 0.669 11.029-1.86l0.895-0.875 0.987 0.994-1.398 1.255c-3.215 2.885-7.737 4.296-11.952 3.728zM119.084 31.115c-2.619-0.668-3.874-1.536-4.766-3.296-0.8-1.579-0.582-3.912 0.515-5.504 1.003-1.456 2.752-2.582 6.921-4.453 5.38-2.415 6.103-2.905 6.19-4.191 0.094-1.38-0.628-2.464-1.897-2.847-0.849-0.256-1.207-0.235-2.393 0.139-1.162 0.367-1.692 0.747-3.175 2.28-1.976 2.042-2.273 2.115-3.698 0.908-1.013-0.858-0.947-1.383 0.304-2.415 4.678-3.86 12.474-3.166 14.399 1.281 0.196 0.453 0.314 3.378 0.372 9.211l0.085 8.547h-1.105c-1.58 0-2.302-0.405-2.591-1.453-0.134-0.486-0.244-3.619-0.245-6.962l-0.001-6.079-1.527 0.942c-0.84 0.518-2.504 1.469-3.698 2.113-3.672 1.981-4.822 3.336-4.843 5.707-0.014 1.516 0.408 2.28 1.785 3.235 1.221 0.847 3.365 0.656 5.901-0.525 1.041-0.485 1.893-0.79 1.893-0.678 0 0.397-2.907 2.906-3.963 3.421-1.062 0.517-3.523 0.858-4.465 0.618zM153.527 31.002c-1.364-0.341-2.735-1.364-3.43-2.557-0.863-1.483-1.080-3.656-1.085-10.89l-0.005-6.457-3.969-0.005c-3.932-0.005-3.964-0.010-3.373-0.467 0.959-0.742 2.226-1.003 4.867-1.003h2.475v-4.181h3.908l0.004 11.13c0.003 8.402 0.078 11.28 0.309 11.745 0.702 1.414 2.583 1.722 4.889 0.801 1.027-0.411 1.020-0.413 1.26 0.373 0.149 0.487 0.029 0.622-0.924 1.047-1.317 0.587-3.586 0.801-4.926 0.466zM0.489 16.018v-14.758h5.207c6.136 0 7.416 0.192 10.182 1.529 6.161 2.977 9.417 10.61 7.43 17.418-1.51 5.172-5.673 9.13-10.727 10.199-1.561 0.33-6.469 0.53-6.193 0.252 0.064-0.065 1.412-0.447 2.994-0.849 3.7-0.941 4.799-1.495 6.636-3.344 2.586-2.604 3.827-5.946 3.835-10.323 0.010-5.654-2.534-10.453-6.616-12.478-1.573-0.78-1.725-0.806-5.23-0.888l-3.609-0.084v28.085h-3.908zM56.832 30.591c-0.26-0.426-8.466-20.544-8.466-20.756 0-0.132 0.815-0.201 1.888-0.161l1.888 0.072 3.847 10.33c2.116 5.682 3.849 10.413 3.852 10.515s-0.647 0.184-1.446 0.184c-0.798 0-1.502-0.083-1.564-0.184zM98.198 20.199v-10.576h1.118c0.91 0 1.251 0.134 1.832 0.719l0.714 0.719v19.715h-3.664zM137.201 30.612c-0.090-0.090-0.163-4.518-0.163-9.838v-9.674h-3.176v-1.476h3.113l0.17-1.966c0.213-2.458 0.445-3.279 1.262-4.466 1.465-2.129 5.313-2.975 7.972-1.754 1.043 0.479 1.137 0.588 0.943 1.1-0.237 0.627-0.242 0.627-2.388 0.053-1.434-0.384-1.554-0.381-2.441 0.056-0.513 0.253-1.070 0.737-1.237 1.075-0.231 0.467-0.305 3.798-0.307 13.835l-0.004 13.22h-1.791c-0.985 0-1.865-0.074-1.954-0.164zM60.336 28.384c0-1.881 1.192-5.614 3.871-12.123 2.643-6.421 2.692-6.516 3.436-6.592 0.415-0.042 0.754 0.025 0.754 0.149 0 0.231-7.796 19.275-7.967 19.462-0.052 0.056-0.094-0.347-0.094-0.895zM109.119 13.681c-1.671-1.913-3.533-2.331-5.627-1.263-0.627 0.32-1.141 0.494-1.141 0.388s0.362-0.672 0.805-1.258c2.129-2.815 5.984-3.096 8.64-0.632 1.631 1.514 1.409 2.6-0.713 3.493-0.495 0.208-0.93 0.368-0.968 0.355s-0.486-0.501-0.996-1.084zM153.405 10.906c0-0.436 1.596-1.095 2.95-1.219l1.447-0.132v1.544h-2.198c-1.209 0-2.198-0.087-2.198-0.193z"></path>
  </symbol>
  <symbol id="burger" viewBox="0 0 32 32">
   <path d="M5.334 23.027v-1.333h21.333v1.333h-21.333zM5.334 16.667v-1.333h21.333v1.333h-21.333zM5.334 10.307v-1.333h21.333v1.333h-21.333z"></path>
  </symbol>
  </defs>
 </svg>
